# xmcd
#
# Track frame offsets: 
#        150
#        13631
#        28686
#        46869
#        62874
#        77257
#
# Disc length: 1262 seconds
#
# Revision: 0
# Processed by: cddbd v1.5.2PL0 Copyright (c) Steve Scherf et al.
# Submitted via: ExactAudioCopy v1.0b3
#
DISCID=3c04ec06
DTITLE=Rachael Fahim - Rachael Fahim
DYEAR=2017
DGENRE=Country
TTITLE0=Confetti
TTITLE1=Quick Fix
TTITLE2=Exit Sign
TTITLE3=Back Off Sweetheart
TTITLE4=Your Shirt
TTITLE5=Only Crazy Because
EXTD=
EXTT0=
EXTT1=
EXTT2=
EXTT3=
EXTT4=
EXTT5=
PLAYORDER=
